name Visual3d_SIMM_input.mot
datacolumns 42
datarows 9
range 1.590000 1.670000
endheader
time	pelvis_tx	pelvis_ty	pelvis_tz	pelvis_tilt	pelvis_list	pelvis_rotation	hip_flexion_r	hip_adduction_r	hip_rotation_r	knee_angle_r	ankle_angle_r	subtalar_angle_r	mtp_angle_r	hip_flexion_l	hip_adduction_l	hip_rotation_l	knee_angle_l	ankle_angle_l	subtalar_angle_l	mtp_angle_l	lumbar_extension	lumbar_bending	lumbar_rotation	ground_force_vx	ground_force_vy	ground_force_vz	ground_force_px	ground_force_py	ground_force_pz	ground_force_vx	ground_force_vy	ground_force_vz	ground_force_px	ground_force_py	ground_force_pz	ground_torque_x	ground_torque_y	ground_torque_z	ground_torque_x	ground_torque_y	ground_torque_z
1.590000	0.265078	0.593935	0.201480	3.599144	-35.738827	95.643082	64.013072	1.321482	-12.762339	-55.529076	23.174366	-0.000000	0.000000	30.954581	-2.382387	-1.139019	-49.229292	26.524881	-0.000000	0.000000	42.133900	-0.320875	-2.136983	-2.042322	219.357849	17.150564	0.295846	-0.002652	0.164829	0.000000	0.000000	0.000000	0.000000	0.000000	0.000000	0.002474	0.744537	-0.013996	0.000000	0.000000	0.000000
1.600000	0.267403	0.591126	0.194236	3.246870	-35.391174	94.949173	63.429692	1.935552	-12.099561	-56.567237	23.921344	-0.000000	0.000000	31.474912	-2.659376	-0.553295	-51.874419	23.766828	-0.000000	0.000000	41.764957	-0.352789	-1.354207	-2.281407	247.220520	19.027082	0.296999	-0.002813	0.164536	0.000000	0.000000	0.000000	0.000000	0.000000	0.000000	0.002826	0.850483	-0.015987	0.000000	0.000000	0.000000
1.610000	0.269606	0.588223	0.187102	3.024873	-35.098198	94.344727	62.948649	2.535900	-11.592067	-57.688871	24.701096	-0.000000	0.000000	32.181884	-3.001864	0.085369	-54.766308	21.146033	-0.000000	0.000000	41.447763	-0.292469	-0.671630	-3.174961	269.924835	20.421146	0.297837	-0.003272	0.164223	0.000000	0.000000	0.000000	0.000000	0.000000	0.000000	0.003050	0.917824	-0.017253	0.000000	0.000000	0.000000
1.620000	0.271574	0.585331	0.180103	2.992377	-34.882847	93.875900	62.582387	3.103824	-11.317288	-58.862297	25.481791	-0.000000	0.000000	33.145463	-3.429031	0.764921	-57.899268	18.802956	-0.000000	0.000000	41.207184	-0.097223	-0.129836	-4.695370	287.820892	21.223415	0.298520	-0.003814	0.163928	0.000000	0.000000	0.000000	0.000000	0.000000	0.000000	0.003168	0.953468	-0.017923	0.000000	0.000000	0.000000
1.630000	0.273220	0.582577	0.173262	3.125183	-34.753727	93.547638	62.320039	3.589904	-11.280861	-60.047997	26.226292	-0.000000	0.000000	34.378162	-3.883086	1.484269	-61.207941	16.809172	-0.000000	0.000000	41.050660	0.216121	0.271996	-6.655990	301.591248	21.328129	0.299199	-0.004295	0.163674	0.000000	0.000000	0.000000	0.000000	0.000000	0.000000	0.003225	0.970685	-0.018247	0.000000	0.000000	0.000000
1.640000	0.274492	0.580091	0.166585	3.350801	-34.709785	93.334236	62.133787	3.941288	-11.437784	-61.198714	26.902117	-0.000000	0.000000	35.850577	-4.273201	2.234856	-64.591760	15.198967	-0.000000	0.000000	40.975428	0.597053	0.562896	-8.831211	311.928467	20.650433	0.299962	-0.004642	0.163468	0.000000	0.000000	0.000000	0.000000	0.000000	0.000000	0.003255	0.979742	-0.018417	0.000000	0.000000	0.000000
1.650000	0.275397	0.577989	0.160055	3.597871	-34.741436	93.196579	61.981276	4.137229	-11.721802	-62.255549	27.483684	-0.000000	0.000000	37.510371	-4.533813	2.986340	-67.946264	13.993414	-0.000000	0.000000	40.972239	0.997291	0.786495	-11.042585	319.453247	19.158417	0.300827	-0.004835	0.163310	0.000000	0.000000	0.000000	0.000000	0.000000	0.000000	0.003269	0.983744	-0.018492	0.000000	0.000000	0.000000
1.660000	0.275988	0.576373	0.153638	3.817920	-34.832939	93.094086	61.812181	4.196952	-12.063288	-63.152421	27.951974	-0.000000	0.000000	39.296763	-4.645034	3.688799	-71.178904	13.202500	-0.000000	0.000000	41.027867	1.385681	0.990402	-13.156271	324.582703	16.891811	0.301754	-0.004893	0.163191	0.000000	0.000000	0.000000	0.000000	0.000000	0.000000	0.003257	0.980215	-0.018426	0.000000	0.000000	0.000000
1.670000	0.276343	0.575322	0.147292	3.985412	-34.968517	92.995918	61.580405	4.161340	-12.400843	-63.827592	28.294793	-0.000000	0.000000	41.154550	-4.618102	4.292266	-74.213263	12.816854	-0.000000	0.000000	41.129617	1.744586	1.211328	-15.037719	327.482117	13.978101	0.302680	-0.004859	0.163100	0.000000	0.000000	0.000000	0.000000	0.000000	0.000000	0.003206	0.965004	-0.018140	0.000000	0.000000	0.000000
